<svg width="105" height="330" viewBox="0 0 105 330" fill="none" xmlns="http://www.w3.org/2000/svg">
<path opacity="0.458277" fill-rule="evenodd" clip-rule="evenodd" d="M166.47 274.857C151.11 274.857 136.995 271.977 123.279 266.611C110.011 260.866 98.3708 253.047 88.4241 242.759C78.0457 232.867 70.1581 221.361 64.3462 208.192C58.5177 194.612 55.6117 180.621 55.6117 165.395C55.6117 150.153 58.5177 136.178 64.3462 122.581C70.1581 109.413 78.0457 97.907 88.4241 88.0143C98.3708 77.7265 110.011 69.9077 123.279 64.163C136.995 58.8133 151.11 55.9163 166.47 55.9163C196.343 55.9163 222.497 66.2041 244.499 87.6192L283.953 49.3321C268.577 34.1226 250.743 22.1723 230.816 13.5305C230.567 13.4318 230.301 13.3659 230.069 13.2507L230.799 12.7733C210.889 4.13158 189.286 0 166.47 0C143.621 0 122.05 4.52664 102.107 13.1684C81.7653 21.8102 64.3628 33.744 48.9695 48.5585C34.6556 63.1589 23.0982 79.6853 14.48 98.7794C14.098 99.6024 13.6331 100.36 13.2678 101.183C12.0224 104.096 11.0426 107.092 9.94668 110.055C3.52036 127.519 0 145.593 0 164.621C0 164.753 0.0166055 164.885 0.0166055 165.016C0.0166055 165.132 0 165.263 0 165.395C0 188.028 4.5665 209.41 13.2678 229.591C22.0022 249.344 34.0246 266.611 48.9695 281.442C64.3462 296.651 81.7819 308.173 102.107 316.832C122.034 325.473 143.637 330 166.47 330C189.302 330 210.889 325.868 230.816 317.243C250.743 308.601 268.577 296.651 283.953 281.442L244.499 243.154C222.497 264.57 196.343 274.857 166.47 274.857Z" fill="#3B2059"/>
</svg>
