<svg width="92" height="147" viewBox="0 0 92 147" fill="none" xmlns="http://www.w3.org/2000/svg">
<path d="M0 139.2V6.79999C0 4.93333 0.666666 3.33333 2 2C3.33333 0.666664 5 0 7 0H45C75.6667 0 91 13.6 91 40.8C91 52.1333 88.4667 61.0667 83.4 67.6C78.3333 74 71.4667 78.2667 62.8 80.4L90.8 133C91.3333 133.933 91.6 134.933 91.6 136C91.6 138.667 90.2 141.133 87.4 143.4C84.7333 145.667 81.8667 146.8 78.8 146.8C75.3333 146.8 72.5333 144.733 70.4 140.6L41.2 83.4H21V139.2C21 141.333 19.9333 143.067 17.8 144.4C15.8 145.6 13.3333 146.2 10.4 146.2C7.6 146.2 5.13333 145.6 3 144.4C1 143.067 0 141.333 0 139.2ZM21 66.4H45C61.5333 66.4 69.8 58.4667 69.8 42.6C69.8 26.7333 61.5333 18.8 45 18.8H21V66.4Z" fill="white"/>
</svg>
